<?xml version="1.0" encoding="UTF-8"?>
<svg id="Layer_2" data-name="Layer 2" xmlns="http://www.w3.org/2000/svg" viewBox="0 0 1129.21 241.01">
  <defs>
    <style>
      .cls-1 {
        fill: #5f8a5c;
      }

      .cls-2 {
        fill: #43b02a;
      }

      .cls-3 {
        fill: #c07a5f;
      }
    </style>
  </defs>
  <g id="Layer_1-2" data-name="Layer 1">
    <g>
      <path class="cls-3" d="M0,178.72v-3.25L93.96,5.42h-51.45c-5.96,0-10.79,1.35-14.49,4.06-3.7,2.71-7,6.68-9.89,11.91l-12.46,21.93h-2.71L4.87,0h132.42v3.25L43.33,173.31h59.03c5.96,0,10.7-1.4,14.22-4.2,3.52-2.8,6.72-6.81,9.61-12.05l11.64-21.66h2.71l-1.9,43.33H0Z"/>
      <path class="cls-3" d="M217.99,44.41c11.73,0,21.75,2.4,30.06,7.18,8.3,4.78,14.67,11.28,19.09,19.5,4.42,8.22,6.63,17.56,6.63,28.03,0,1.99-.09,4.02-.27,6.09-.18,2.08-.54,3.93-1.08,5.55h-80.7c.18,19.5,3.66,33.54,10.43,42.11,6.77,8.58,16.83,12.86,30.19,12.86,9.03,0,16.34-1.44,21.93-4.33,5.59-2.89,10.83-7.13,15.71-12.73l2.71,2.44c-5.6,9.93-13.04,17.69-22.34,23.29-9.3,5.59-20.45,8.4-33.44,8.4s-24.19-2.75-34.12-8.26c-9.93-5.5-17.69-13.4-23.29-23.69-5.6-10.29-8.4-22.56-8.4-36.83s3.25-27.39,9.75-37.78c6.5-10.38,14.85-18.28,25.05-23.69,10.2-5.42,20.89-8.12,32.09-8.12ZM217.18,49.83c-5.24,0-9.71,1.58-13.4,4.74-3.7,3.16-6.59,8.76-8.67,16.79-2.08,8.03-3.21,19.36-3.38,33.98h46.31c1.8-19.67,1.08-33.85-2.17-42.51s-9.48-13-18.68-13Z"/>
      <path class="cls-3" d="M287.31,178.72v-2.71l4.06-1.08c3.61-1.08,6.09-2.71,7.45-4.87s2.03-4.96,2.03-8.4v-84.76c0-3.97-.68-6.9-2.03-8.8-1.35-1.9-3.84-3.2-7.45-3.93l-4.06-1.08v-2.71l46.58-15.71,2.71,2.71,2.44,23.29v2.16c2.52-5.05,5.82-9.7,9.88-13.95,4.06-4.24,8.57-7.72,13.54-10.43,4.96-2.71,9.88-4.06,14.76-4.06,6.86,0,12.09,1.9,15.71,5.69,3.61,3.79,5.42,8.58,5.42,14.35,0,6.14-1.76,10.88-5.28,14.22-3.52,3.34-7.72,5.01-12.59,5.01-7.58,0-14.26-3.79-20.04-11.37l-.54-.54c-1.81-2.53-3.88-3.93-6.23-4.2-2.35-.27-4.51.86-6.5,3.38-1.81,1.63-3.3,3.57-4.47,5.82-1.18,2.26-2.3,4.83-3.38,7.72v75.55c0,7.22,3.16,11.74,9.48,13.54l8.67,2.44v2.71h-70.13Z"/>
      <path class="cls-3" d="M470.91,182.79c-13.72,0-25.64-2.84-35.74-8.53-10.11-5.69-17.92-13.77-23.42-24.24-5.51-10.47-8.26-22.75-8.26-36.83s2.93-26.27,8.8-36.56c5.87-10.29,13.9-18.23,24.1-23.83,10.2-5.59,21.71-8.4,34.53-8.4s24.28,2.76,34.39,8.26c10.11,5.51,18.1,13.4,23.97,23.69,5.86,10.29,8.8,22.57,8.8,36.83s-2.76,26.58-8.26,36.96c-5.51,10.38-13.27,18.41-23.29,24.1-10.02,5.69-21.89,8.53-35.61,8.53ZM470.91,177.37c6.32,0,11.37-1.8,15.16-5.42,3.79-3.61,6.54-10.02,8.26-19.23,1.71-9.21,2.57-22.2,2.57-38.99s-.86-30.06-2.57-39.26c-1.72-9.21-4.47-15.61-8.26-19.23-3.79-3.61-8.85-5.42-15.16-5.42s-11.42,1.81-15.3,5.42c-3.88,3.61-6.68,10.02-8.39,19.23-1.72,9.21-2.57,22.3-2.57,39.26s.85,29.79,2.57,38.99c1.71,9.21,4.51,15.62,8.39,19.23,3.88,3.61,8.98,5.42,15.3,5.42Z"/>
      <path class="cls-1" d="M545.11,178.72v-2.71l5.69-2.17c3.79-1.44,6.18-3.2,7.18-5.28.99-2.07,1.49-4.92,1.49-8.53V18.68c0-3.61-.54-6.5-1.63-8.67-1.08-2.17-3.43-3.88-7.04-5.14l-5.69-2.17V0h69.05v2.71l-4.87,2.17c-3.43,1.26-5.78,3.03-7.04,5.28-1.27,2.26-1.9,5.19-1.9,8.8v154.35h41.7c6.68,0,11.6-1.63,14.76-4.87,3.16-3.25,6.18-7.94,9.07-14.08l10.56-22.75h2.71l-2.44,47.12h-131.61Z"/>
      <path class="cls-1" d="M984.87,241.01v-2.71l3.25-1.08c6.68-1.81,10.02-6.14,10.02-13V76.9c0-3.97-.68-6.95-2.03-8.93-1.35-1.99-3.84-3.34-7.45-4.06l-3.79-.81v-2.71l46.03-15.71,2.71,2.71,2.44,8.4c5.96-3.61,12.59-6.41,19.9-8.4,7.31-1.99,14.85-2.98,22.61-2.98,15.52,0,27.84,5.92,36.96,17.74,9.11,11.83,13.68,28.75,13.68,50.77s-5.01,38.72-15.03,51.18c-10.02,12.46-24.15,18.68-42.38,18.68-14.26,0-26.27-2.08-36.02-6.23v46.85c0,7.22,3.25,11.73,9.75,13.54l5.15,1.35v2.71h-65.8ZM1058.8,174.93c9.02,0,16.2-4.69,21.53-14.08,5.32-9.38,7.99-25,7.99-46.85s-2.53-37.14-7.58-45.9c-5.06-8.75-12.37-13.13-21.93-13.13-6.68,0-14.08,2.17-22.2,6.5v109.13c6.86,2.89,14.26,4.33,22.2,4.33Z"/>
      <path class="cls-1" d="M749.68,68.17c12.15,0,23.03,4.9,31.03,12.79.05.05.11.11.16.16l38.97,37.69c.21-2.13.32-4.32.32-6.5,0-19.24-7.68-36.57-20.04-49.31l-3.79-3.57c-12.47-10.98-28.73-17.65-46.64-17.65-38.97,0-70.53,31.56-70.53,70.53s31.56,70.47,70.53,70.47c30.28,0,56.08-19.08,66.05-45.85l-22.12-20.74c-1.97,22.55-20.9,40.19-43.93,40.19-24.36,0-44.14-19.72-44.14-44.09s19.78-44.14,44.14-44.14Z"/>
      <g>
        <g>
          <path class="cls-2" d="M957.36,112.39c-.04,23.68-19.27,42.88-42.96,42.88-11.73,0-22.34-4.64-30.07-12.21-.11-.11-.27-.27-.37-.37l-39.71-37.69-44.14-42.01c12.37,12.74,20.04,30.07,20.04,49.31,0,2.19-.11,4.37-.32,6.5l42.33,40.89c.37.37.75.8,1.17,1.17,12.79,13.49,30.97,21.91,51.07,21.91,38.89,0,70.43-31.52,70.47-70.39h-27.51Z"/>
          <path class="cls-2" d="M914.4,41.78c-30.01,0-55.65,18.71-65.84,45.15l22.92,22.23c1.6-22.28,20.2-39.87,42.91-39.87s42.97,19.24,42.97,43.02c0,.03,0,.06,0,.08h0s27.5,0,27.5,0c0-.03,0-.05,0-.08,0-38.97-31.56-70.53-70.47-70.53Z"/>
          <path class="cls-2" d="M914.4,41.78c-30.01,0-55.65,18.71-65.84,45.15l22.92,22.23c1.6-22.28,20.2-39.87,42.91-39.87s42.97,19.24,42.97,43.02c0,.03,0,.06,0,.08h0s27.5,0,27.5,0c0-.03,0-.05,0-.08,0-38.97-31.56-70.53-70.47-70.53Z"/>
        </g>
        <g>
          <path class="cls-1" d="M957.36,112.39c-.04,23.68-19.27,42.88-42.96,42.88-11.73,0-22.34-4.64-30.07-12.21-.11-.11-.27-.27-.37-.37l-39.71-37.69-44.14-42.01c12.37,12.74,20.04,30.07,20.04,49.31,0,2.19-.11,4.37-.32,6.5l42.33,40.89c.37.37.75.8,1.17,1.17,12.79,13.49,30.97,21.91,51.07,21.91,38.89,0,70.43-31.52,70.47-70.39h-27.51Z"/>
          <path class="cls-1" d="M914.4,41.78c-30.01,0-55.65,18.71-65.84,45.15l22.92,22.23c1.6-22.28,20.2-39.87,42.91-39.87s42.97,19.24,42.97,43.02c0,.03,0,.06,0,.08h0s27.5,0,27.5,0c0-.03,0-.05,0-.08,0-38.97-31.56-70.53-70.47-70.53Z"/>
          <path class="cls-1" d="M914.4,41.78c-30.01,0-55.65,18.71-65.84,45.15l22.92,22.23c1.6-22.28,20.2-39.87,42.91-39.87s42.97,19.24,42.97,43.02c0,.03,0,.06,0,.08h0s27.5,0,27.5,0c0-.03,0-.05,0-.08,0-38.97-31.56-70.53-70.47-70.53Z"/>
        </g>
      </g>
    </g>
  </g>
</svg>